<svg width="296" height="130" viewBox="0 0 296 130" fill="none" xmlns="http://www.w3.org/2000/svg">
<path d="M34.0528 19.2802C20.1423 18.5333 10.5923 22.0877 0.0351562 26.017V129.316H295.636V54.0872C286.101 62.5977 275.829 64.1925 262.792 64.1925C248.129 64.1925 244.61 40.6135 229.947 40.6135C216.119 40.6135 212.104 55.7714 198.276 55.7714C183.026 55.7714 184.738 20.403 165.431 20.403C150.768 20.403 145.977 26.017 133.173 26.017C117.924 26.017 115.578 0.753337 99.7419 0.75386C82.2382 0.754439 84.401 29.9468 66.8973 29.9468C52.2346 29.9468 47.7301 20.0145 34.0528 19.2802Z" fill="url(#paint0_linear_7054_337)"/>
<defs>
<linearGradient id="paint0_linear_7054_337" x1="148.422" y1="0.192457" x2="148.422" y2="129.315" gradientUnits="userSpaceOnUse">
<stop stop-color="#A5A4F4"/>
<stop offset="0.442708" stop-color="#C3C2F8" stop-opacity="0.328125"/>
<stop offset="1" stop-color="#D2D1FA" stop-opacity="0"/>
</linearGradient>
</defs>
</svg>
